<?xml version="1.0" standalone="no"?>
<!DOCTYPE svg PUBLIC "-//W3C//DTD SVG 20010904//EN"
 "http://www.w3.org/TR/2001/REC-SVG-20010904/DTD/svg10.dtd">
<svg version="1.0" xmlns="http://www.w3.org/2000/svg"
 width="167.000000pt" height="167.000000pt" viewBox="0 0 167.000000 167.000000"
 preserveAspectRatio="xMidYMid meet">
<metadata>
Created by potrace 1.14, written by Peter Selinger 2001-2017
</metadata>
<g transform="translate(0.000000,167.000000) scale(0.100000,-0.100000)"
fill="#000000" stroke="none">
<path d="M184 1268 c-2 -108 -16 -430 -19 -447 -2 -11 -7 -41 -11 -68 -9 -59
-35 -122 -60 -145 -11 -9 -35 -20 -54 -25 l-35 -9 -3 -97 -3 -97 63 0 c172 0
262 65 308 220 23 77 28 118 36 270 10 214 12 233 22 239 8 5 159 7 182 2 3
-1 6 -164 6 -363 l-1 -363 173 -3 172 -2 0 90 0 90 257 -2 256 -3 0 -87 -1
-88 99 0 99 0 0 169 0 168 -27 1 c-16 0 -34 0 -40 1 -10 1 -13 67 -13 296 l0
295 -703 0 -703 0 0 -42z m1046 -335 c0 -163 -3 -213 -12 -214 -40 -3 -195 -4
-205 -1 -10 3 -9 11 2 33 19 35 46 148 51 214 11 131 13 151 13 166 1 12 15
15 76 15 l75 0 0 -213z"/>
</g>
</svg>
